<mxfile host="app.diagrams.net" agent="Mozilla/5.0 (Windows NT 10.0; Win64; x64; rv:131.0) Gecko/20100101 Firefox/131.0" version="24.7.17">
  <diagram id="C5RBs43oDa-KdzZeNtuy" name="Page-1">
    <mxGraphModel dx="1434" dy="782" grid="1" gridSize="10" guides="1" tooltips="1" connect="1" arrows="1" fold="1" page="1" pageScale="1" pageWidth="827" pageHeight="1169" math="0" shadow="0">
      <root>
        <mxCell id="WIyWlLk6GJQsqaUBKTNV-0" />
        <mxCell id="WIyWlLk6GJQsqaUBKTNV-1" parent="WIyWlLk6GJQsqaUBKTNV-0" />
        <mxCell id="u8OU6DB-fcuG40gzvuq--2" value="&lt;font style=&quot;font-size: 36px;&quot;&gt;&lt;b&gt;&lt;u&gt;Employee&lt;/u&gt;&lt;/b&gt;&lt;/font&gt;" style="text;html=1;align=center;verticalAlign=middle;resizable=0;points=[];autosize=1;strokeColor=none;fillColor=none;" parent="WIyWlLk6GJQsqaUBKTNV-1" vertex="1">
          <mxGeometry x="105" y="3" width="190" height="60" as="geometry" />
        </mxCell>
        <mxCell id="u8OU6DB-fcuG40gzvuq--3" value="&lt;font style=&quot;font-size: 36px;&quot;&gt;&lt;b&gt;&lt;u&gt;System&lt;/u&gt;&lt;/b&gt;&lt;/font&gt;" style="text;html=1;align=center;verticalAlign=middle;resizable=0;points=[];autosize=1;strokeColor=none;fillColor=none;" parent="WIyWlLk6GJQsqaUBKTNV-1" vertex="1">
          <mxGeometry x="540" y="3" width="150" height="60" as="geometry" />
        </mxCell>
        <mxCell id="u8OU6DB-fcuG40gzvuq--4" value="" style="endArrow=none;html=1;rounded=0;" parent="WIyWlLk6GJQsqaUBKTNV-1" edge="1">
          <mxGeometry width="50" height="50" relative="1" as="geometry">
            <mxPoint x="420" y="770" as="sourcePoint" />
            <mxPoint x="420" as="targetPoint" />
          </mxGeometry>
        </mxCell>
        <mxCell id="u8OU6DB-fcuG40gzvuq--6" style="edgeStyle=orthogonalEdgeStyle;rounded=0;orthogonalLoop=1;jettySize=auto;html=1;" parent="WIyWlLk6GJQsqaUBKTNV-1" source="u8OU6DB-fcuG40gzvuq--5" edge="1">
          <mxGeometry relative="1" as="geometry">
            <mxPoint x="200" y="190" as="targetPoint" />
          </mxGeometry>
        </mxCell>
        <mxCell id="u8OU6DB-fcuG40gzvuq--5" value="Login Page" style="rounded=1;whiteSpace=wrap;html=1;" parent="WIyWlLk6GJQsqaUBKTNV-1" vertex="1">
          <mxGeometry x="140" y="110" width="120" height="40" as="geometry" />
        </mxCell>
        <mxCell id="u8OU6DB-fcuG40gzvuq--8" style="edgeStyle=orthogonalEdgeStyle;rounded=0;orthogonalLoop=1;jettySize=auto;html=1;" parent="WIyWlLk6GJQsqaUBKTNV-1" source="u8OU6DB-fcuG40gzvuq--7" edge="1">
          <mxGeometry relative="1" as="geometry">
            <mxPoint x="560" y="210" as="targetPoint" />
          </mxGeometry>
        </mxCell>
        <mxCell id="u8OU6DB-fcuG40gzvuq--7" value="&lt;div&gt;Enter Credentials&lt;/div&gt;" style="rounded=1;whiteSpace=wrap;html=1;" parent="WIyWlLk6GJQsqaUBKTNV-1" vertex="1">
          <mxGeometry x="140" y="190" width="120" height="40" as="geometry" />
        </mxCell>
        <mxCell id="u8OU6DB-fcuG40gzvuq--11" style="edgeStyle=orthogonalEdgeStyle;rounded=0;orthogonalLoop=1;jettySize=auto;html=1;" parent="WIyWlLk6GJQsqaUBKTNV-1" source="u8OU6DB-fcuG40gzvuq--10" edge="1">
          <mxGeometry relative="1" as="geometry">
            <mxPoint x="260" y="280" as="targetPoint" />
            <Array as="points">
              <mxPoint x="600" y="280" />
            </Array>
          </mxGeometry>
        </mxCell>
        <mxCell id="u8OU6DB-fcuG40gzvuq--14" value="NO" style="edgeLabel;html=1;align=center;verticalAlign=middle;resizable=0;points=[];" parent="u8OU6DB-fcuG40gzvuq--11" vertex="1" connectable="0">
          <mxGeometry x="-0.0108" y="2" relative="1" as="geometry">
            <mxPoint as="offset" />
          </mxGeometry>
        </mxCell>
        <mxCell id="u8OU6DB-fcuG40gzvuq--16" style="edgeStyle=orthogonalEdgeStyle;rounded=0;orthogonalLoop=1;jettySize=auto;html=1;exitX=1;exitY=0.5;exitDx=0;exitDy=0;" parent="WIyWlLk6GJQsqaUBKTNV-1" source="u8OU6DB-fcuG40gzvuq--10" edge="1">
          <mxGeometry relative="1" as="geometry">
            <mxPoint x="260" y="370" as="targetPoint" />
            <Array as="points">
              <mxPoint x="661" y="210" />
            </Array>
          </mxGeometry>
        </mxCell>
        <mxCell id="u8OU6DB-fcuG40gzvuq--17" value="YES" style="edgeLabel;html=1;align=center;verticalAlign=middle;resizable=0;points=[];" parent="u8OU6DB-fcuG40gzvuq--16" vertex="1" connectable="0">
          <mxGeometry x="0.3265" y="-1" relative="1" as="geometry">
            <mxPoint as="offset" />
          </mxGeometry>
        </mxCell>
        <mxCell id="u8OU6DB-fcuG40gzvuq--10" value="Authorized?" style="rhombus;whiteSpace=wrap;html=1;" parent="WIyWlLk6GJQsqaUBKTNV-1" vertex="1">
          <mxGeometry x="560" y="170" width="80" height="80" as="geometry" />
        </mxCell>
        <mxCell id="u8OU6DB-fcuG40gzvuq--13" style="edgeStyle=orthogonalEdgeStyle;rounded=0;orthogonalLoop=1;jettySize=auto;html=1;entryX=0;entryY=0.5;entryDx=0;entryDy=0;" parent="WIyWlLk6GJQsqaUBKTNV-1" source="u8OU6DB-fcuG40gzvuq--12" target="u8OU6DB-fcuG40gzvuq--7" edge="1">
          <mxGeometry relative="1" as="geometry">
            <Array as="points">
              <mxPoint x="110" y="280" />
              <mxPoint x="110" y="210" />
            </Array>
          </mxGeometry>
        </mxCell>
        <mxCell id="u8OU6DB-fcuG40gzvuq--12" value="Incorrect Message" style="rounded=1;whiteSpace=wrap;html=1;" parent="WIyWlLk6GJQsqaUBKTNV-1" vertex="1">
          <mxGeometry x="140" y="260" width="120" height="40" as="geometry" />
        </mxCell>
        <mxCell id="u8OU6DB-fcuG40gzvuq--18" value="Grant Access" style="rounded=1;whiteSpace=wrap;html=1;" parent="WIyWlLk6GJQsqaUBKTNV-1" vertex="1">
          <mxGeometry x="140" y="350" width="120" height="40" as="geometry" />
        </mxCell>
      </root>
    </mxGraphModel>
  </diagram>
</mxfile>
